<?xml version="1.0" encoding="UTF-8" standalone="no"?>
<!-- Created with Inkscape (http://www.inkscape.org/) -->

<svg
   xmlns:dc="http://purl.org/dc/elements/1.1/"
   xmlns:cc="http://creativecommons.org/ns#"
   xmlns:rdf="http://www.w3.org/1999/02/22-rdf-syntax-ns#"
   xmlns:svg="http://www.w3.org/2000/svg"
   xmlns="http://www.w3.org/2000/svg"
   xmlns:sodipodi="http://sodipodi.sourceforge.net/DTD/sodipodi-0.dtd"
   xmlns:inkscape="http://www.inkscape.org/namespaces/inkscape"
   width="210mm"
   height="297mm"
   viewBox="0 0 210 297"
   version="1.1"
   id="svg8"
   inkscape:version="0.92.3 (2405546, 2018-03-11)"
   sodipodi:docname="profile.svg">
  <defs
     id="defs2" />
  <sodipodi:namedview
     id="base"
     pagecolor="#ffffff"
     bordercolor="#666666"
     borderopacity="1.0"
     inkscape:pageopacity="0.0"
     inkscape:pageshadow="2"
     inkscape:zoom="0.49497475"
     inkscape:cx="218.90293"
     inkscape:cy="507.31731"
     inkscape:document-units="mm"
     inkscape:current-layer="layer1"
     showgrid="false"
     inkscape:window-width="1280"
     inkscape:window-height="961"
     inkscape:window-x="1912"
     inkscape:window-y="86"
     inkscape:window-maximized="1" />
  <metadata
     id="metadata5">
    <rdf:RDF>
      <cc:Work
         rdf:about="">
        <dc:format>image/svg+xml</dc:format>
        <dc:type
           rdf:resource="http://purl.org/dc/dcmitype/StillImage" />
        <dc:title></dc:title>
      </cc:Work>
    </rdf:RDF>
  </metadata>
  <g
     inkscape:label="Taso 1"
     inkscape:groupmode="layer"
     id="layer1">
    <g
       id="g844"
       transform="translate(-41.961315,-120.53856)">
      <path
         style="fill:#e3e3e3;stroke-width:0.26458332"
         d="m 42.030949,179.82738 v -59.26667 h 59.266661 59.26667 v 59.26667 59.26666 H 101.29761 42.030949 Z"
         id="path848"
         inkscape:connector-curvature="0" />
      <path
         style="fill:#656565;stroke-width:0.26458332"
         d="m 42.030949,179.82738 v -59.26667 h 59.266661 59.26667 v 59.26667 59.26666 H 101.29761 42.030949 Z m 40.459413,23.07374 0.317897,-2.32626 0.62933,-1.80103 0.62933,-1.80103 0.876286,-1.45658 0.876284,-1.45657 1.533692,-1.68006 1.533689,-1.68006 1.833621,-1.21899 1.833623,-1.21899 2.056646,-0.74995 2.056646,-0.74994 2.114809,-0.32 2.114805,-0.31999 1.82085,0.17942 1.82085,0.17942 1.92315,0.49186 1.92315,0.49186 1.55128,0.78309 1.55129,0.78308 1.64286,1.23496 1.64286,1.23496 1.19849,1.50571 1.1985,1.50572 0.91313,1.73172 0.91314,1.73171 0.52488,1.97245 0.52489,1.97245 0.17662,1.65365 0.17661,1.65364 h 1.60082 1.60082 l -0.1618,-2.18281 -0.1618,-2.18281 -0.55538,-1.97415 -0.55538,-1.97414 -1.22643,-2.39148 -1.22643,-2.39148 -2.65975,-2.65975 -2.65975,-2.65975 -2.49632,-1.28058 -2.49632,-1.28058 0.67284,-0.55759 0.67284,-0.55758 1.20474,-0.98577 1.20473,-0.98577 1.31241,-1.96221 1.3124,-1.96222 0.59132,-1.68222 0.59132,-1.68223 0.13548,-2.78143 0.13548,-2.78143 -0.43271,-1.71649 -0.43272,-1.71648 -0.77565,-1.5875 -0.77565,-1.5875 -1.27268,-1.57593 -1.27268,-1.57592 -1.99917,-1.35977 -1.99918,-1.35977 -1.70274,-0.59824 -1.70274,-0.59825 -2.78143,-0.13548 -2.781433,-0.13548 -1.716487,0.43271 -1.716484,0.43272 -1.5875,0.77564 -1.5875,0.77566 -1.575925,1.27267 -1.575924,1.27269 -1.365565,2.00769 -1.365562,2.0077 -0.630388,1.82651 -0.630386,1.82651 v 3.3073 3.30729 l 0.630386,1.82651 0.630388,1.82651 1.36421,2.00571 1.36421,2.00571 1.703269,1.37439 1.703268,1.3744 0.08137,0.24413 0.08138,0.24413 -1.133409,0.43372 -1.133408,0.43371 -1.719792,1.1096 -1.719792,1.1096 -2.022371,2.03088 -2.022375,2.03087 -1.225044,2.08756 -1.225048,2.08757 -0.804283,2.50302 -0.80428,2.50302 -0.154787,2.19333 -0.154783,2.19333 h 1.589222 1.589225 z m 16.690585,-20.15871 -1.190625,-0.22525 -1.132218,-0.40984 -1.132218,-0.40985 -1.435917,-0.95311 -1.435915,-0.9531 -0.814174,-0.9273 -0.814173,-0.92729 -0.679934,-1.07708 -0.679934,-1.07709 -0.533165,-1.48329 -0.533167,-1.48329 v -2.51354 -2.51355 l 0.533167,-1.48329 0.533165,-1.48329 0.679934,-1.07709 0.679934,-1.07708 0.814173,-0.92729 0.814174,-0.9273 1.443992,-0.95846 1.443993,-0.95847 1.521015,-0.54615 1.521018,-0.54614 h 2.513538 2.51355 l 1.52101,0.54614 1.52102,0.54615 1.44399,0.95847 1.44399,0.95846 0.81418,0.9273 0.81417,0.92729 0.67993,1.07708 0.67994,1.07709 0.53316,1.48329 0.53317,1.48329 v 2.51355 2.51354 l -0.54614,1.52101 -0.54615,1.52102 -0.95847,1.44399 -0.95846,1.444 -0.9273,0.81417 -0.92729,0.81417 -1.07708,0.67994 -1.07709,0.67993 -1.40993,0.48509 -1.40994,0.48509 -1.79315,0.13166 -1.79315,0.13166 z"
         id="path846"
         inkscape:connector-curvature="0" />
    </g>
  </g>
</svg>
